<svg width="33" height="34" viewBox="0 0 33 34" fill="none" xmlns="http://www.w3.org/2000/svg">
<path d="M33 19.6739C33 19.0433 30.3463 19.2156 30.1354 18.7572C29.9246 18.2989 33.0761 14.5553 32.6177 13.7156C32.1594 12.8759 27.9556 14.7853 27.6907 14.3646C27.4267 13.9448 27.9583 11.1563 27.5 10.8125C27.0417 10.4688 22.6875 15.3188 22.0761 14.7468C21.4647 14.1748 23.4896 5.12183 23.0716 4.94033C22.6536 4.75883 19.9375 6.19158 19.5947 6.1155C19.2518 6.0385 17.1252 0.5 16.5 0.5C15.8748 0.5 13.7482 6.0385 13.4053 6.11458C13.0625 6.19067 10.3464 4.75792 9.92842 4.93942C9.51042 5.12092 11.5344 14.173 10.923 14.7459C10.3125 15.3188 5.95833 10.4688 5.5 10.8125C5.04167 11.1563 5.57333 13.9448 5.30933 14.3646C5.04442 14.7844 0.840583 12.875 0.38225 13.7156C-0.0760833 14.5562 3.07633 18.2989 2.86458 18.7572C2.65283 19.2156 0 19.0433 0 19.6739C0 20.3046 7.73483 24.4727 8.25 24.964C8.76517 25.4553 5.57883 27.5325 6.03442 27.9239C6.56242 28.3786 9.5535 27.1631 15.5833 27.0467V32.5833C15.5833 32.8264 15.6799 33.0596 15.8518 33.2315C16.0237 33.4034 16.2569 33.5 16.5 33.5C16.7431 33.5 16.9763 33.4034 17.1482 33.2315C17.3201 33.0596 17.4167 32.8264 17.4167 32.5833V27.0467C23.4456 27.1631 26.4376 28.3786 26.9656 27.9239C27.4203 27.5316 24.2348 25.4544 24.75 24.964C25.2652 24.4736 33 20.3037 33 19.6739Z" fill="#B3B3B3"/>
</svg>
